<svg width="359" height="357" viewBox="0 0 359 357" fill="none" xmlns="http://www.w3.org/2000/svg">
<path d="M283.314 0C285.465 0 285.903 3.03066 283.955 3.94358C2.1636 151.693 29.061 353.427 27.3423 354.214C25.6073 355.008 -25.6006 251.17 37.0986 140.185C84.9254 55.526 141 0 141 0C141 0 241.356 0 283.314 0Z" fill="black"/>
<path d="M140.001 228.031C73.7758 223.685 31.5636 356.411 27.8689 354.896C24.1743 353.381 49.3652 184.45 168.545 151.865C171.93 150.94 267.086 118.069 327.257 238.593C338.197 260.507 340.37 274.312 346.667 297.737C351.875 317.112 357.284 346.169 358.806 354.546C359.029 355.769 358.086 356.882 356.842 356.882H235.237C234.298 356.882 233.49 356.258 233.272 355.344C229.867 341.066 201.882 232.092 140.001 228.031Z" fill="black"/>
<path d="M30.8192 335.764C32.0514 336.29 30.202 351.54 28.68 351.54C27.158 351.54 24.5462 343.3 24.5462 341.965C27.7385 325.773 27.7384 338.394 28.3547 338.919C28.5472 339.084 29.5869 341.023 30.8192 335.764Z" fill="black"/>
<path d="M0 2C0 0.895429 0.895431 0 2 0H106C106 0 74.2641 37.2841 56.5 63C36.3352 92.1914 9.14763 139.443 1.86071 152.224C1.35141 153.118 0 152.722 0 151.693V2Z" fill="black"/>
</svg>
